<svg data-v-fde0c5aa="" xmlns="http://www.w3.org/2000/svg" viewBox="0 0 300 300" class="iconAbove"><!----><defs data-v-fde0c5aa=""><!----></defs><rect data-v-fde0c5aa="" fill="transparent" x="0" y="0" width="300px" height="300px" class="logo-background-square"></rect><defs data-v-fde0c5aa=""><!----></defs><g data-v-fde0c5aa="" id="b9e3ae03-0c3a-45f0-9f55-498e7df210a1" fill="#2e3034" transform="matrix(6.54356983313418,0,0,6.54356983313418,9.50955315523319,189.9183672275427)"><path d="M2.45 10.50L2.45 2.13L5.45 10.50L6.64 10.50L9.63 2.13L9.63 10.50L10.96 10.50L10.96 0.42L9.13 0.42L6.06 8.78L3.07 0.42L1.12 0.42L1.12 10.50ZM19.19 7.18C19.21 7.08 19.21 6.76 19.21 6.72C19.21 4.61 18.10 3.01 15.90 3.01C13.89 3.01 12.57 4.45 12.57 6.86C12.57 9.27 13.89 10.71 15.90 10.71C17.49 10.71 18.69 9.91 19.11 8.29L17.92 8.04C17.67 9.13 16.83 9.66 15.97 9.66C14.92 9.66 13.94 8.93 13.83 7.18ZM15.90 4.06C17.08 4.06 17.81 4.94 17.86 6.17L13.87 6.17C14.10 4.69 15.04 4.06 15.90 4.06ZM21.87 10.50L21.87 6.57C21.87 5.15 22.47 4.20 23.67 4.20C24.11 4.20 24.36 4.31 24.64 4.51L25.02 3.40C24.68 3.14 24.29 3.01 23.73 3.01C22.82 3.01 22.20 3.50 21.74 4.48L21.74 3.22L20.61 3.22L20.61 10.50ZM30.37 9.60C30.41 9.95 30.45 10.30 30.66 10.50L31.93 10.50C31.68 10.23 31.54 9.76 31.54 9.02L31.54 5.82C31.54 3.99 30.67 3.01 28.73 3.01C27.33 3.01 26.03 3.53 25.66 5.21L26.85 5.47C27.10 4.52 27.69 4.02 28.60 4.02C29.57 4.02 30.28 4.44 30.28 5.57L30.28 5.85C29.92 6.02 29.06 6.16 28.29 6.23C26.67 6.38 25.44 7.01 25.44 8.58C25.44 10.07 26.57 10.71 27.92 10.71C28.78 10.71 29.64 10.42 30.37 9.60ZM30.28 8.54C29.90 9.03 29.05 9.70 28.11 9.70C27.44 9.70 26.75 9.45 26.75 8.53C26.75 7.53 27.66 7.36 28.43 7.24C29.15 7.13 29.96 6.97 30.28 6.82ZM33.47 10.50L34.73 10.50L34.73 7.35L35.32 7.35C35.88 7.35 36.33 7.60 36.71 8.26L37.90 10.50L39.37 10.50L38.02 8.08C37.59 7.36 37.04 6.92 36.51 6.79L36.51 6.73C37.06 6.59 37.45 6.13 37.79 5.29C38.00 4.76 38.04 4.38 38.70 4.38L39.05 4.38L39.05 3.22L38.79 3.22C37.98 3.22 37.58 3.26 37.18 3.95C37.06 4.17 36.65 5.24 36.41 5.63C36.06 6.20 35.60 6.30 35.18 6.30L34.73 6.30L34.73 0.42L33.47 0.42ZM41.82 1.83L41.82 0.42L40.56 0.42L40.56 1.83ZM41.82 10.50L41.82 3.22L40.56 3.22L40.56 10.50Z"></path></g><defs data-v-fde0c5aa=""><!----></defs><g data-v-fde0c5aa="" id="0c20c881-86e8-4edd-9e39-11d692097767" stroke="none" fill="#488eff" transform="matrix(4.267545560544679,0,0,4.267545560544679,81.71927461426218,39.05260487334954)"><path d="M16 23.787L8.102 16 16 8.213 23.898 16 16 23.787zM9.525 16L16 22.383 22.475 16 16 9.617 9.525 16z"></path><path d="M15.915 31.778L-.005 16.084 16.085.222l15.92 15.694-16.09 15.862zM1.419 16.084l14.496 14.29 14.666-14.458-14.496-14.29L1.419 16.084z"></path><path d="M15.5.924h1v30.152h-1z"></path></g><!----></svg>